<svg width="29" height="22" viewBox="0 0 29 22" fill="none" xmlns="http://www.w3.org/2000/svg">
<g clip-path="url(#clip0_776_2298)">
<path d="M24.2838 2.25872C22.4634 1.42527 20.5416 0.833999 18.5675 0.5C18.2973 0.982913 18.0529 1.47977 17.8352 1.98848C15.7324 1.67161 13.594 1.67161 11.4912 1.98848C11.2734 1.47982 11.029 0.982972 10.7589 0.5C8.78356 0.836819 6.86047 1.4295 5.0382 2.26308C1.42051 7.6155 0.439814 12.835 0.930163 17.9804C3.04877 19.5457 5.42009 20.7362 7.94106 21.5C8.50871 20.7365 9.011 19.9266 9.44262 19.0788C8.62283 18.7726 7.83158 18.3948 7.07805 17.9499C7.27636 17.806 7.47032 17.6578 7.65775 17.514C9.85036 18.5451 12.2435 19.0798 14.6665 19.0798C17.0894 19.0798 19.4826 18.5451 21.6752 17.514C21.8648 17.6687 22.0587 17.8169 22.2549 17.9499C21.4999 18.3955 20.7072 18.774 19.886 19.0809C20.317 19.9284 20.8194 20.7376 21.3875 21.5C23.9106 20.7392 26.2838 19.5493 28.4028 17.9826C28.9781 12.0156 27.4199 6.84402 24.2838 2.25872ZM10.0637 14.816C8.69729 14.816 7.56839 13.576 7.56839 12.0504C7.56839 10.5249 8.65806 9.27397 10.0594 9.27397C11.4607 9.27397 12.5808 10.5249 12.5569 12.0504C12.5329 13.576 11.4563 14.816 10.0637 14.816ZM19.2692 14.816C17.9006 14.816 16.7761 13.576 16.7761 12.0504C16.7761 10.5249 17.8657 9.27397 19.2692 9.27397C20.6727 9.27397 21.7841 10.5249 21.7602 12.0504C21.7362 13.576 20.6618 14.816 19.2692 14.816Z" fill="white"/>
</g>
<defs>
<clipPath id="clip0_776_2298">
<rect width="27.708" height="21" fill="white" transform="translate(0.8125 0.5)"/>
</clipPath>
</defs>
</svg>
