<svg width="23" height="22" viewBox="0 0 23 22" fill="none" xmlns="http://www.w3.org/2000/svg">
<g clip-path="url(#clip0_776_2289)">
<path fill-rule="evenodd" clip-rule="evenodd" d="M20.1727 22H3.06163C1.7116 22 0.617188 20.9056 0.617188 19.5556V2.44444C0.617188 1.09441 1.7116 0 3.06163 0H20.1727C21.5228 0 22.6172 1.09441 22.6172 2.44444V19.5556C22.6172 20.9056 21.5228 22 20.1727 22ZM16.2961 18.9445H19.5608V12.2379C19.5608 9.4003 17.9522 8.02828 15.7054 8.02828C13.4576 8.02828 12.5116 9.77872 12.5116 9.77872V8.3519H9.36539V18.9445H12.5116V13.384C12.5116 11.8941 13.1974 11.0075 14.5101 11.0075C15.7168 11.0075 16.2961 11.8595 16.2961 13.384V18.9445ZM3.67188 5.01024C3.67188 6.08966 4.54028 6.96488 5.61195 6.96488C6.68363 6.96488 7.55151 6.08966 7.55151 5.01024C7.55151 3.93082 6.68363 3.0556 5.61195 3.0556C4.54028 3.0556 3.67188 3.93082 3.67188 5.01024ZM7.26808 18.9445H3.98738V8.3519H7.26808V18.9445Z" fill="white"/>
</g>
<defs>
<clipPath id="clip0_776_2289">
<rect width="22" height="22" fill="white" transform="translate(0.613281)"/>
</clipPath>
</defs>
</svg>
