<svg width="26" height="24" viewBox="0 0 26 24" fill="none" xmlns="http://www.w3.org/2000/svg">
<g clip-path="url(#clip0_776_2294)">
<path d="M23.1043 6.80876C23.1198 7.0331 23.1199 7.25744 23.1199 7.48385C23.1199 14.3826 17.868 22.3391 8.26465 22.3391V22.3349C5.4278 22.3391 2.64988 21.5265 0.261719 19.9943C0.67422 20.0439 1.08879 20.0687 1.50439 20.0698C3.85534 20.0718 6.13908 19.283 7.98861 17.8305C5.75449 17.7881 3.79537 16.3314 3.11097 14.2048C3.89359 14.3558 4.69998 14.3247 5.46812 14.1149C3.0324 13.6228 1.28005 11.4827 1.28005 8.99739V8.93122C2.0058 9.33545 2.8184 9.55979 3.6496 9.58461C1.35552 8.05143 0.648374 4.99954 2.03371 2.61345C4.68447 5.8752 8.59548 7.8581 12.7939 8.06797C12.3731 6.25462 12.9479 4.35443 14.3043 3.07971C16.4071 1.10301 19.7144 1.20433 21.6911 3.30612C22.8604 3.07557 23.981 2.64653 25.0066 2.03863C24.6168 3.24719 23.8011 4.27379 22.7115 4.92614C23.7464 4.80415 24.7574 4.52708 25.7096 4.10424C25.0087 5.15462 24.1258 6.06956 23.1043 6.80876Z" fill="white"/>
</g>
<defs>
<clipPath id="clip0_776_2294">
<rect width="25.4479" height="24" fill="white" transform="translate(0.261719)"/>
</clipPath>
</defs>
</svg>
