<svg width="24" height="24" viewBox="0 0 24 24" fill="none" xmlns="http://www.w3.org/2000/svg">
<path d="M8.31906 21.147C6.98054 21.2995 6.05754 20.9694 5.4443 20.5022C5.0979 20.2382 4.87196 19.9465 4.73144 19.7172C4.6611 19.6025 4.61149 19.5023 4.57828 19.4272C4.56165 19.3896 4.54904 19.3581 4.53992 19.334C4.53557 19.3224 4.53201 19.3126 4.52918 19.3045C4.3045 18.7214 4.03525 18.375 3.84125 18.1814C3.74294 18.0833 3.66169 18.0223 3.6117 17.9887C3.58666 17.9719 3.56936 17.9619 3.56157 17.9576C3.56087 17.9573 3.56024 17.9569 3.55969 17.9566L3.52426 17.9406L3.48397 17.9132C3.21948 17.734 2.9651 17.5226 2.8533 17.2565C2.78569 17.0956 2.76162 16.8919 2.84791 16.6884C2.927 16.5018 3.06621 16.3939 3.16308 16.3366C3.34422 16.2295 3.55069 16.1974 3.6514 16.1848C3.71295 16.1771 3.76709 16.1734 3.80605 16.1715C3.82579 16.1705 3.84229 16.17 3.85467 16.1698L3.87023 16.1695L3.8756 16.1695L3.87766 16.1695L3.87852 16.1695H3.87892C3.8791 16.1695 3.87928 16.1695 3.87928 16.7396V16.1695H3.8981L3.91687 16.1707C4.67267 16.2206 5.23079 16.6068 5.5816 16.9461C5.75892 17.1175 5.89229 17.2853 5.98207 17.4111C6.02722 17.4744 6.06209 17.5281 6.08664 17.5677C6.09894 17.5876 6.1087 17.604 6.11593 17.6164L6.1249 17.6321L6.12509 17.6324C6.53881 18.3401 7.036 18.5494 7.47269 18.5896C7.82053 18.6216 8.16347 18.5474 8.43501 18.4536C8.49002 18.2001 8.56771 17.9684 8.66278 17.7601C7.64177 17.5685 6.60424 17.2066 5.75541 16.4871C4.61814 15.5231 3.91163 13.9988 3.91163 11.6763C3.91163 10.4064 4.33024 9.33618 5.00742 8.48064C4.84432 7.89516 4.67824 6.76201 5.23143 5.3608L5.3311 5.10834L5.5899 5.02652L5.76176 5.57017C5.5899 5.02652 5.59045 5.02635 5.591 5.02618L5.59213 5.02583L5.59444 5.02511L5.59936 5.02362L5.61032 5.02045C5.61812 5.01825 5.62693 5.01591 5.63674 5.0135C5.65637 5.00866 5.67998 5.00353 5.70761 4.99863C5.76292 4.98881 5.83396 4.97998 5.92102 4.97623C6.09553 4.96871 6.33144 4.98169 6.63139 5.04574C7.19142 5.16534 7.96997 5.46182 8.99099 6.12998C9.88637 5.90949 10.8053 5.79741 11.7281 5.79638L11.7287 5.79638C12.6501 5.79638 13.5867 5.91244 14.4666 6.12974C15.4876 5.46174 16.2661 5.16532 16.8261 5.04574C17.126 4.98169 17.3619 4.96871 17.5364 4.97623C17.6235 4.97998 17.6945 4.98881 17.7499 4.99863C17.7775 5.00353 17.8011 5.00866 17.8207 5.0135C17.8305 5.01591 17.8393 5.01825 17.8472 5.02045L17.8581 5.02362L17.863 5.02511L17.8653 5.02583L17.8665 5.02618C17.867 5.02635 17.8676 5.02652 17.6957 5.57017L8.31906 21.147ZM8.31906 21.147C8.32083 21.3812 8.32327 21.6026 8.32569 21.8003C8.32717 21.9209 8.32864 22.0318 8.32995 22.1311C8.33282 22.3488 8.33496 22.5114 8.33496 22.5993C8.33496 22.5997 8.33496 22.6001 8.33495 22.6004C8.32075 22.6004 8.30142 22.5993 8.27631 22.5955C4.00578 21.1434 0.929542 17.0815 0.929542 12.2833C0.929542 6.26019 5.76063 1.39957 11.7287 1.39957C17.6789 1.39957 22.5268 6.26074 22.5091 12.2816V12.2833C22.5091 17.0814 19.4329 21.1431 15.1624 22.5957C15.1372 22.5995 15.1179 22.6006 15.1037 22.6006C15.1037 22.6001 15.1037 22.5996 15.1037 22.5991C15.1037 22.476 15.1057 22.2608 15.1084 21.9698C15.1098 21.8204 15.1114 21.651 15.1129 21.4639C15.1176 20.9155 15.1223 20.2215 15.1223 19.4513C15.1223 18.7744 14.9957 18.208 14.7848 17.7543L8.31906 21.147Z" fill="white" stroke="white" stroke-width="1.14033"/>
</svg>
