<svg width="1024" height="54" viewBox="0 0 1024 54" fill="none" xmlns="http://www.w3.org/2000/svg">
<g filter="url(#filter0_i_933_5343)">
<path d="M0 12C0 5.37258 5.37258 0 12 0H1012C1018.63 0 1024 5.37258 1024 12V54H0V12Z" fill="#E6E6E6"/>
<path d="M468.67 21.3636V33H467.057L461.142 24.4659H461.034V33H459.278V21.3636H460.903L466.824 29.9091H466.932V21.3636H468.67ZM474.857 33.1761C473.997 33.1761 473.256 32.9924 472.635 32.625C472.018 32.2538 471.54 31.733 471.203 31.0625C470.87 30.3883 470.703 29.5985 470.703 28.6932C470.703 27.7992 470.87 27.0114 471.203 26.3295C471.54 25.6477 472.01 25.1155 472.612 24.733C473.218 24.3504 473.927 24.1591 474.737 24.1591C475.23 24.1591 475.707 24.2405 476.169 24.4034C476.631 24.5663 477.046 24.822 477.413 25.1705C477.781 25.5189 478.071 25.9716 478.283 26.5284C478.495 27.0814 478.601 27.7538 478.601 28.5455V29.1477H471.663V27.875H476.936C476.936 27.428 476.845 27.0322 476.663 26.6875C476.482 26.339 476.226 26.0644 475.896 25.8636C475.571 25.6629 475.188 25.5625 474.749 25.5625C474.271 25.5625 473.855 25.6799 473.499 25.9148C473.146 26.1458 472.874 26.4489 472.68 26.8239C472.491 27.1951 472.396 27.5985 472.396 28.0341V29.0284C472.396 29.6117 472.499 30.108 472.703 30.517C472.911 30.9261 473.201 31.2386 473.572 31.4545C473.944 31.6667 474.377 31.7727 474.874 31.7727C475.196 31.7727 475.489 31.7273 475.754 31.6364C476.019 31.5417 476.249 31.4015 476.442 31.2159C476.635 31.0303 476.783 30.8011 476.885 30.5284L478.493 30.8182C478.364 31.2917 478.133 31.7064 477.8 32.0625C477.47 32.4148 477.055 32.6894 476.555 32.8864C476.059 33.0795 475.493 33.1761 474.857 33.1761ZM482.362 33L479.794 24.2727H481.55L483.26 30.6818H483.345L485.061 24.2727H486.817L488.521 30.6534H488.607L490.305 24.2727H492.061L489.499 33H487.766L485.993 26.6989H485.862L484.089 33H482.362ZM497.908 33V24.2727H499.538V25.6932H499.646C499.828 25.2121 500.125 24.8371 500.538 24.5682C500.951 24.2955 501.446 24.1591 502.021 24.1591C502.605 24.1591 503.093 24.2955 503.487 24.5682C503.885 24.8409 504.179 25.2159 504.368 25.6932H504.459C504.667 25.2273 504.999 24.8561 505.453 24.5795C505.908 24.2992 506.449 24.1591 507.078 24.1591C507.87 24.1591 508.516 24.4072 509.016 24.9034C509.519 25.3996 509.771 26.1477 509.771 27.1477V33H508.072V27.3068C508.072 26.7159 507.911 26.2879 507.589 26.0227C507.268 25.7576 506.883 25.625 506.436 25.625C505.883 25.625 505.453 25.7955 505.146 26.1364C504.839 26.4735 504.686 26.9072 504.686 27.4375V33H502.993V27.1989C502.993 26.7254 502.845 26.3447 502.55 26.0568C502.254 25.7689 501.87 25.625 501.396 25.625C501.074 25.625 500.777 25.7102 500.504 25.8807C500.235 26.0473 500.018 26.2803 499.851 26.5795C499.688 26.8788 499.607 27.2254 499.607 27.6193V33H497.908ZM515.81 33.1761C514.95 33.1761 514.209 32.9924 513.588 32.625C512.971 32.2538 512.493 31.733 512.156 31.0625C511.823 30.3883 511.656 29.5985 511.656 28.6932C511.656 27.7992 511.823 27.0114 512.156 26.3295C512.493 25.6477 512.963 25.1155 513.565 24.733C514.171 24.3504 514.88 24.1591 515.69 24.1591C516.183 24.1591 516.66 24.2405 517.122 24.4034C517.584 24.5663 517.999 24.822 518.366 25.1705C518.734 25.5189 519.024 25.9716 519.236 26.5284C519.448 27.0814 519.554 27.7538 519.554 28.5455V29.1477H512.616V27.875H517.889C517.889 27.428 517.798 27.0322 517.616 26.6875C517.435 26.339 517.179 26.0644 516.849 25.8636C516.524 25.6629 516.141 25.5625 515.702 25.5625C515.224 25.5625 514.808 25.6799 514.452 25.9148C514.099 26.1458 513.827 26.4489 513.634 26.8239C513.444 27.1951 513.349 27.5985 513.349 28.0341V29.0284C513.349 29.6117 513.452 30.108 513.656 30.517C513.865 30.9261 514.154 31.2386 514.526 31.4545C514.897 31.6667 515.33 31.7727 515.827 31.7727C516.149 31.7727 516.442 31.7273 516.707 31.6364C516.973 31.5417 517.202 31.4015 517.395 31.2159C517.588 31.0303 517.736 30.8011 517.838 30.5284L519.446 30.8182C519.317 31.2917 519.086 31.7064 518.753 32.0625C518.423 32.4148 518.009 32.6894 517.509 32.8864C517.012 33.0795 516.446 33.1761 515.81 33.1761ZM527.979 26.4034L526.439 26.6761C526.375 26.4792 526.272 26.2917 526.132 26.1136C525.996 25.9356 525.81 25.7898 525.575 25.6761C525.34 25.5625 525.047 25.5057 524.695 25.5057C524.214 25.5057 523.812 25.6136 523.49 25.8295C523.168 26.0417 523.007 26.3163 523.007 26.6534C523.007 26.9451 523.115 27.1799 523.331 27.358C523.547 27.536 523.895 27.6818 524.376 27.7955L525.763 28.1136C526.566 28.2992 527.164 28.5852 527.558 28.9716C527.952 29.358 528.149 29.8598 528.149 30.4773C528.149 31 527.998 31.4659 527.695 31.875C527.395 32.2803 526.977 32.5985 526.439 32.8295C525.905 33.0606 525.286 33.1761 524.581 33.1761C523.604 33.1761 522.806 32.9678 522.189 32.5511C521.571 32.1307 521.193 31.5341 521.053 30.7614L522.695 30.5114C522.797 30.9394 523.007 31.2633 523.325 31.483C523.643 31.6989 524.058 31.8068 524.57 31.8068C525.126 31.8068 525.571 31.6913 525.905 31.4602C526.238 31.2254 526.405 30.9394 526.405 30.6023C526.405 30.3295 526.303 30.1004 526.098 29.9148C525.897 29.7292 525.589 29.589 525.172 29.4943L523.695 29.1705C522.88 28.9848 522.278 28.6894 521.888 28.2841C521.501 27.8788 521.308 27.3655 521.308 26.7443C521.308 26.2292 521.452 25.7784 521.74 25.392C522.028 25.0057 522.426 24.7045 522.933 24.4886C523.441 24.2689 524.022 24.1591 524.678 24.1591C525.621 24.1591 526.363 24.3636 526.905 24.7727C527.446 25.178 527.804 25.7216 527.979 26.4034ZM536.557 26.4034L535.017 26.6761C534.953 26.4792 534.85 26.2917 534.71 26.1136C534.574 25.9356 534.388 25.7898 534.153 25.6761C533.919 25.5625 533.625 25.5057 533.273 25.5057C532.792 25.5057 532.39 25.6136 532.068 25.8295C531.746 26.0417 531.585 26.3163 531.585 26.6534C531.585 26.9451 531.693 27.1799 531.909 27.358C532.125 27.536 532.473 27.6818 532.955 27.7955L534.341 28.1136C535.144 28.2992 535.742 28.5852 536.136 28.9716C536.53 29.358 536.727 29.8598 536.727 30.4773C536.727 31 536.576 31.4659 536.273 31.875C535.973 32.2803 535.555 32.5985 535.017 32.8295C534.483 33.0606 533.864 33.1761 533.159 33.1761C532.182 33.1761 531.384 32.9678 530.767 32.5511C530.15 32.1307 529.771 31.5341 529.631 30.7614L531.273 30.5114C531.375 30.9394 531.585 31.2633 531.903 31.483C532.222 31.6989 532.636 31.8068 533.148 31.8068C533.705 31.8068 534.15 31.6913 534.483 31.4602C534.816 31.2254 534.983 30.9394 534.983 30.6023C534.983 30.3295 534.881 30.1004 534.676 29.9148C534.475 29.7292 534.167 29.589 533.75 29.4943L532.273 29.1705C531.458 28.9848 530.856 28.6894 530.466 28.2841C530.08 27.8788 529.886 27.3655 529.886 26.7443C529.886 26.2292 530.03 25.7784 530.318 25.392C530.606 25.0057 531.004 24.7045 531.511 24.4886C532.019 24.2689 532.6 24.1591 533.256 24.1591C534.199 24.1591 534.941 24.3636 535.483 24.7727C536.025 25.178 536.383 25.7216 536.557 26.4034ZM541.135 33.1932C540.582 33.1932 540.082 33.0909 539.635 32.8864C539.188 32.678 538.834 32.3769 538.572 31.983C538.315 31.589 538.186 31.1061 538.186 30.5341C538.186 30.0417 538.281 29.6364 538.47 29.3182C538.66 29 538.915 28.7481 539.237 28.5625C539.559 28.3769 539.919 28.2367 540.317 28.142C540.714 28.0473 541.12 27.9754 541.533 27.9261C542.055 27.8655 542.48 27.8163 542.805 27.7784C543.131 27.7367 543.368 27.6705 543.516 27.5795C543.663 27.4886 543.737 27.3409 543.737 27.1364V27.0966C543.737 26.6004 543.597 26.2159 543.317 25.9432C543.04 25.6705 542.627 25.5341 542.078 25.5341C541.506 25.5341 541.055 25.661 540.726 25.9148C540.4 26.1648 540.175 26.4432 540.05 26.75L538.453 26.3864C538.643 25.8561 538.919 25.428 539.283 25.1023C539.65 24.7727 540.072 24.5341 540.55 24.3864C541.027 24.2348 541.529 24.1591 542.055 24.1591C542.404 24.1591 542.773 24.2008 543.163 24.2841C543.557 24.3636 543.925 24.5114 544.266 24.7273C544.61 24.9432 544.893 25.2519 545.112 25.6534C545.332 26.0511 545.442 26.5682 545.442 27.2045V33H543.783V31.8068H543.714C543.605 32.0265 543.44 32.2424 543.22 32.4545C543 32.6667 542.718 32.8428 542.374 32.983C542.029 33.1231 541.616 33.1932 541.135 33.1932ZM541.504 31.8295C541.974 31.8295 542.375 31.7367 542.709 31.5511C543.046 31.3655 543.302 31.1231 543.476 30.8239C543.654 30.5208 543.743 30.197 543.743 29.8523V28.7273C543.682 28.7879 543.565 28.8447 543.391 28.8977C543.22 28.947 543.025 28.9905 542.805 29.0284C542.586 29.0625 542.372 29.0947 542.163 29.125C541.955 29.1515 541.781 29.1742 541.641 29.1932C541.311 29.2348 541.01 29.3049 540.737 29.4034C540.468 29.5019 540.252 29.6439 540.089 29.8295C539.93 30.0114 539.851 30.2538 539.851 30.5568C539.851 30.9773 540.006 31.2955 540.317 31.5114C540.627 31.7235 541.023 31.8295 541.504 31.8295ZM551.364 36.4545C550.67 36.4545 550.074 36.3636 549.574 36.1818C549.078 36 548.672 35.7595 548.358 35.4602C548.044 35.161 547.809 34.8333 547.653 34.4773L549.114 33.875C549.216 34.0417 549.352 34.2178 549.523 34.4034C549.697 34.5928 549.932 34.7538 550.227 34.8864C550.527 35.0189 550.911 35.0852 551.381 35.0852C552.025 35.0852 552.557 34.928 552.977 34.6136C553.398 34.303 553.608 33.8068 553.608 33.125V31.4091H553.5C553.398 31.5947 553.25 31.8011 553.057 32.0284C552.867 32.2557 552.606 32.4527 552.273 32.6193C551.939 32.786 551.506 32.8693 550.972 32.8693C550.282 32.8693 549.661 32.7083 549.108 32.3864C548.559 32.0606 548.123 31.5814 547.801 30.9489C547.483 30.3125 547.324 29.5303 547.324 28.6023C547.324 27.6742 547.481 26.8788 547.795 26.2159C548.114 25.553 548.549 25.0455 549.102 24.6932C549.655 24.3371 550.282 24.1591 550.983 24.1591C551.525 24.1591 551.962 24.25 552.295 24.4318C552.629 24.6098 552.888 24.8182 553.074 25.0568C553.263 25.2955 553.409 25.5057 553.511 25.6875H553.636V24.2727H555.301V33.1932C555.301 33.9432 555.127 34.5587 554.778 35.0398C554.43 35.5208 553.958 35.8769 553.364 36.108C552.773 36.339 552.106 36.4545 551.364 36.4545ZM551.347 31.4602C551.835 31.4602 552.248 31.3466 552.585 31.1193C552.926 30.8883 553.184 30.5587 553.358 30.1307C553.536 29.6989 553.625 29.1818 553.625 28.5795C553.625 27.9924 553.538 27.4754 553.364 27.0284C553.189 26.5814 552.934 26.233 552.597 25.983C552.259 25.7292 551.843 25.6023 551.347 25.6023C550.835 25.6023 550.409 25.7348 550.068 26C549.727 26.2614 549.47 26.6174 549.295 27.0682C549.125 27.5189 549.04 28.0227 549.04 28.5795C549.04 29.1515 549.127 29.6534 549.301 30.0852C549.475 30.517 549.733 30.8542 550.074 31.0966C550.419 31.339 550.843 31.4602 551.347 31.4602ZM561.341 33.1761C560.481 33.1761 559.741 32.9924 559.119 32.625C558.502 32.2538 558.025 31.733 557.688 31.0625C557.354 30.3883 557.188 29.5985 557.188 28.6932C557.188 27.7992 557.354 27.0114 557.688 26.3295C558.025 25.6477 558.494 25.1155 559.097 24.733C559.703 24.3504 560.411 24.1591 561.222 24.1591C561.714 24.1591 562.191 24.2405 562.653 24.4034C563.116 24.5663 563.53 24.822 563.898 25.1705C564.265 25.5189 564.555 25.9716 564.767 26.5284C564.979 27.0814 565.085 27.7538 565.085 28.5455V29.1477H558.148V27.875H563.42C563.42 27.428 563.33 27.0322 563.148 26.6875C562.966 26.339 562.71 26.0644 562.381 25.8636C562.055 25.6629 561.672 25.5625 561.233 25.5625C560.756 25.5625 560.339 25.6799 559.983 25.9148C559.631 26.1458 559.358 26.4489 559.165 26.8239C558.975 27.1951 558.881 27.5985 558.881 28.0341V29.0284C558.881 29.6117 558.983 30.108 559.188 30.517C559.396 30.9261 559.686 31.2386 560.057 31.4545C560.428 31.6667 560.862 31.7727 561.358 31.7727C561.68 31.7727 561.973 31.7273 562.239 31.6364C562.504 31.5417 562.733 31.4015 562.926 31.2159C563.119 31.0303 563.267 30.8011 563.369 30.5284L564.977 30.8182C564.848 31.2917 564.617 31.7064 564.284 32.0625C563.955 32.4148 563.54 32.6894 563.04 32.8864C562.544 33.0795 561.977 33.1761 561.341 33.1761Z" fill="white"/>
<circle cx="22" cy="27" r="5.5" fill="#F73636" stroke="#D62929"/>
<circle cx="42" cy="27" r="5.5" fill="#F7C136" stroke="#CEA435"/>
<circle cx="62" cy="27" r="5.5" fill="#68F736" stroke="#53CC28"/>
</g>
<defs>
<filter id="filter0_i_933_5343" x="0" y="0" width="1024" height="54" filterUnits="userSpaceOnUse" color-interpolation-filters="sRGB">
<feFlood flood-opacity="0" result="BackgroundImageFix"/>
<feBlend mode="normal" in="SourceGraphic" in2="BackgroundImageFix" result="shape"/>
<feColorMatrix in="SourceAlpha" type="matrix" values="0 0 0 0 0 0 0 0 0 0 0 0 0 0 0 0 0 0 127 0" result="hardAlpha"/>
<feOffset dy="-1"/>
<feComposite in2="hardAlpha" operator="arithmetic" k2="-1" k3="1"/>
<feColorMatrix type="matrix" values="0 0 0 0 1 0 0 0 0 1 0 0 0 0 1 0 0 0 0.03 0"/>
<feBlend mode="normal" in2="shape" result="effect1_innerShadow_933_5343"/>
</filter>
</defs>
</svg>
