<svg width="114" height="114" viewBox="0 0 114 114" fill="none" xmlns="http://www.w3.org/2000/svg">
<mask id="mask0_3431_4541" style="mask-type:alpha" maskUnits="userSpaceOnUse" x="0" y="0" width="114" height="114">
<rect width="114" height="114" rx="27" fill="#544747"/>
</mask>
<g mask="url(#mask0_3431_4541)">
<rect width="114" height="114" rx="27" fill="black"/>
</g>
<g clip-path="url(#clip0_3431_4541)">
<mask id="mask1_3431_4541" style="mask-type:alpha" maskUnits="userSpaceOnUse" x="8" y="8" width="98" height="98">
<path d="M57 106C84.062 106 106 84.062 106 57C106 29.938 84.062 8 57 8C29.938 8 8 29.938 8 57C8 84.062 29.938 106 57 106Z" fill="black"/>
</mask>
<g mask="url(#mask1_3431_4541)">
<path d="M57 106C84.062 106 106 84.062 106 57C106 29.938 84.062 8 57 8C29.938 8 8 29.938 8 57C8 84.062 29.938 106 57 106Z" fill="black"/>
<path d="M89.3972 93.7609L45.6424 37.4H37.3984V76.5837H43.9936V45.7755L84.2201 97.749C86.0353 96.5343 87.7644 95.201 89.3972 93.7609Z" fill="url(#paint0_linear_3431_4541)"/>
<path d="M77.1427 37.4H70.6094V76.6H77.1427V37.4Z" fill="url(#paint1_linear_3431_4541)"/>
</g>
</g>
<defs>
<linearGradient id="paint0_linear_3431_4541" x1="67.3429" y1="71.4278" x2="86.6707" y2="95.3834" gradientUnits="userSpaceOnUse">
<stop stop-color="white"/>
<stop offset="1" stop-color="white" stop-opacity="0"/>
</linearGradient>
<linearGradient id="paint1_linear_3431_4541" x1="73.876" y1="37.4" x2="73.7666" y2="66.1875" gradientUnits="userSpaceOnUse">
<stop stop-color="white"/>
<stop offset="1" stop-color="white" stop-opacity="0"/>
</linearGradient>
<clipPath id="clip0_3431_4541">
<rect width="98" height="98" fill="white" transform="translate(8 8)"/>
</clipPath>
</defs>
</svg>
