<svg width="19" height="17" viewBox="0 0 19 17" fill="none" xmlns="http://www.w3.org/2000/svg">
<path d="M0.833008 8.5H17.333M0.833008 12.25H17.333M0.833008 16H17.333M2.70801 1H15.458C15.9553 1 16.4322 1.19754 16.7838 1.54917C17.1355 1.90081 17.333 2.37772 17.333 2.875C17.333 3.37228 17.1355 3.84919 16.7838 4.20083C16.4322 4.55246 15.9553 4.75 15.458 4.75H2.70801C2.21073 4.75 1.73381 4.55246 1.38218 4.20083C1.03055 3.84919 0.833008 3.37228 0.833008 2.875C0.833008 2.37772 1.03055 1.90081 1.38218 1.54917C1.73381 1.19754 2.21073 1 2.70801 1Z" stroke="#C5C5C5" stroke-width="1.5" stroke-linecap="round" stroke-linejoin="round"/>
</svg>
